<?xml version="1.0" standalone="no"?>
<!DOCTYPE svg PUBLIC "-//W3C//DTD SVG 20010904//EN"
 "http://www.w3.org/TR/2001/REC-SVG-20010904/DTD/svg10.dtd">
<svg version="1.0" xmlns="http://www.w3.org/2000/svg"
 width="600.000000pt" height="600.000000pt" viewBox="0 0 600.000000 600.000000"
 preserveAspectRatio="xMidYMid meet">
<metadata>
Created by potrace 1.11, written by Peter Selinger 2001-2013
</metadata>
<g transform="translate(0.000000,600.000000) scale(0.100000,-0.100000)"
fill="#000000" stroke="none">
<path d="M3035 5779 c5 -15 -11 -17 -132 -24 -163 -8 -331 -28 -463 -56 -929
-192 -1697 -855 -2028 -1749 -104 -282 -154 -545 -172 -898 l-9 -167 5 185 c2
102 11 230 18 285 32 220 30 252 -4 84 -10 -52 -19 -82 -19 -66 -1 24 21 187
35 256 4 24 4 24 -5 4 -31 -70 -81 -471 -81 -650 0 -461 131 -958 356 -1355
30 -54 56 -98 58 -98 1 0 -38 82 -88 183 -51 101 -112 244 -139 321 -51 150
-58 200 -9 64 190 -523 483 -938 892 -1263 105 -83 259 -189 265 -183 3 2 -30
27 -73 54 -244 160 -483 384 -637 599 -38 53 -19 35 46 -45 148 -181 378 -391
584 -536 53 -36 93 -69 90 -74 -9 -14 150 -110 282 -170 225 -102 510 -192
732 -230 336 -59 741 -51 1066 21 121 27 257 67 269 79 14 14 3 13 -61 -6 -81
-24 -74 -11 10 15 223 71 490 197 682 322 58 37 105 66 105 63 0 -7 -247 -167
-297 -193 -24 -12 -43 -24 -43 -27 0 -10 171 86 273 153 199 131 457 361 587
523 25 30 -11 -1 -79 -70 -77 -78 -99 -98 -60 -52 227 260 355 445 478 689
131 260 214 514 260 793 11 69 22 136 24 150 4 22 4 22 6 -5 0 -16 -6 -73 -13
-125 -8 -52 -17 -115 -20 -140 -5 -42 -5 -43 4 -10 19 71 49 308 54 425 2 66
1 95 -2 65 -5 -39 -9 3 -14 150 -4 113 -14 252 -22 310 -8 58 -22 155 -30 215
-9 61 -24 144 -35 185 -28 103 -18 101 14 -3 67 -221 104 -443 114 -682 l8
-180 1 150 c4 324 -53 610 -191 960 -226 577 -674 1108 -1172 1390 -74 42 -42
16 55 -45 180 -112 413 -305 524 -436 l59 -69 -69 66 c-272 259 -595 489 -829
589 -100 43 -63 16 80 -58 230 -119 482 -297 605 -428 33 -34 18 -25 -54 35
-286 240 -567 407 -863 517 -109 40 -137 58 -38 24 44 -15 61 -17 69 -9 8 9 8
10 0 6 -15 -9 -117 26 -107 36 4 5 -5 3 -20 -2 -39 -15 -44 -14 -21 5 10 8 13
12 5 8 -7 -3 -17 -1 -21 6 -6 9 -12 10 -26 1 -18 -10 -18 -10 1 -11 11 -1 15
-4 9 -6 -6 -3 -22 0 -35 5 -16 7 -19 10 -7 10 9 1 20 6 24 13 5 8 0 9 -14 6
-12 -4 -20 -2 -17 2 3 5 -9 11 -26 15 -23 5 -28 9 -18 16 9 6 1 7 -21 3 -27
-4 -31 -3 -20 5 11 8 7 10 -20 5 -26 -4 -31 -3 -20 5 11 8 5 9 -25 5 -32 -5
-37 -3 -25 6 13 10 12 11 -4 6 -28 -10 -107 4 -99 17 3 6 1 7 -6 3 -6 -4 -53
-2 -104 4 -51 7 -149 15 -219 19 -115 5 -127 4 -123 -10z m712 -115 c-3 -3
-12 -4 -19 -1 -8 3 -5 6 6 6 11 1 17 -2 13 -5z m-640 -844 c-6 -8 -7 -12 -3
-8 5 4 15 3 22 -3 9 -8 11 -5 7 10 -6 23 15 29 35 9 8 -8 15 -8 28 3 16 12 17
12 11 -3 -3 -10 -2 -18 3 -18 6 0 10 5 10 10 0 6 9 10 20 10 19 0 25 -11 20
-35 -1 -5 2 -7 6 -3 4 4 56 -76 116 -179 72 -125 105 -189 97 -194 -6 -4 -128
-48 -270 -99 l-258 -92 -206 78 c-113 43 -205 81 -205 85 0 15 213 384 231
400 10 9 15 19 12 23 -4 3 -1 6 6 6 7 0 9 5 5 13 -6 10 -4 10 7 0 16 -15 33
-17 24 -3 -8 13 8 13 21 0 13 -13 46 -2 38 14 -3 6 1 2 10 -8 13 -16 16 -17
21 -4 6 15 35 21 35 7 0 -4 15 -9 34 -11 22 -2 32 0 29 7 -3 5 0 5 7 -2 10 -9
17 -9 32 0 15 10 21 9 28 -3 8 -12 11 -11 16 8 5 17 9 20 15 11 4 -8 3 -20 -4
-29z m250 -13 c12 5 14 3 8 -6 -6 -10 2 -12 35 -7 34 5 40 3 31 -8 -9 -11 -3
-12 30 -9 35 4 41 2 36 -11 -4 -9 -2 -16 3 -16 6 0 10 4 10 10 0 5 16 1 35
-10 32 -18 39 -18 36 3 -2 15 9 6 24 -20 13 -23 15 -24 12 -6 -4 19 -2 20 14
10 14 -9 16 -14 6 -26 -9 -12 -9 -13 1 -7 7 4 12 2 12 -4 0 -6 5 -8 10 -5 6 4
8 11 5 16 -3 5 1 6 9 3 9 -3 17 -14 17 -23 1 -13 2 -13 6 2 4 16 8 14 34 -12
19 -20 29 -26 29 -16 0 8 5 15 11 15 5 0 8 -3 6 -7 -3 -5 -1 -17 4 -28 6 -17
8 -17 8 -2 1 9 6 17 12 17 5 0 7 -6 3 -12 -5 -8 0 -7 11 2 17 14 18 13 12 -3
-4 -10 -3 -16 2 -12 5 3 16 -2 25 -11 9 -8 21 -12 28 -8 7 5 9 2 5 -9 -7 -19
16 -30 33 -14 10 9 12 9 8 -2 -4 -13 -385 -158 -392 -150 -11 13 -196 347
-199 359 -2 8 -2 12 0 8 2 -4 11 -4 20 -1z m-647 -4 c0 -2 -50 -92 -111 -201
l-112 -199 -136 52 c-75 28 -169 64 -208 79 -69 26 -88 45 -61 62 8 5 9 2 5
-10 -4 -10 -3 -15 3 -11 6 3 10 13 10 21 0 11 6 13 19 9 14 -4 21 0 26 15 3
11 16 25 27 31 15 8 18 8 14 0 -5 -7 -1 -9 8 -5 9 3 16 10 16 16 0 5 5 6 10 3
6 -3 11 2 11 12 1 17 2 17 6 0 4 -17 6 -17 17 -2 6 9 25 17 41 19 16 2 31 8
33 15 3 9 7 9 18 0 11 -9 15 -8 20 5 3 9 10 16 16 16 5 0 7 -4 3 -9 -3 -6 3
-9 13 -8 10 0 19 7 19 14 0 6 -4 10 -8 8 -3 -3 -13 3 -20 12 -12 15 -12 16 1
8 20 -12 60 -14 60 -3 0 5 4 7 9 4 5 -4 12 0 15 6 5 10 7 10 12 1 8 -19 27
-16 20 3 -3 8 -2 12 4 9 22 -13 49 -14 44 0 -3 7 0 16 7 21 8 5 10 3 4 -6 -6
-10 -1 -11 21 -6 16 4 39 8 51 8 13 0 21 3 19 7 -2 3 9 6 25 6 16 0 29 -1 29
-2z m-497 -349 c127 -47 236 -89 240 -93 7 -7 -180 -352 -203 -375 -5 -5 -132
-53 -282 -106 -232 -82 -274 -94 -280 -81 -7 17 -60 383 -57 398 1 4 0 10 -1
13 -1 3 -3 13 -5 23 -3 14 -1 16 10 7 12 -10 13 -8 10 10 -3 18 -2 20 10 10
11 -10 15 -10 15 -1 0 7 5 9 12 5 8 -5 9 -2 5 10 -4 9 -3 15 2 12 13 -8 34 21
25 35 -5 9 -2 10 11 5 14 -5 16 -4 7 7 -9 11 -5 13 21 12 38 -2 50 11 35 39
-10 19 -10 20 6 7 14 -12 16 -12 10 2 -4 12 -1 14 17 10 14 -4 20 -2 16 4 -4
6 0 13 8 17 8 3 15 13 15 23 0 10 12 24 28 30 l27 13 -24 -20 c-13 -11 -18
-20 -12 -20 7 0 9 -5 5 -12 -4 -7 -3 -8 5 -4 6 4 9 12 6 17 -6 8 8 13 27 10 4
0 4 7 1 16 -4 9 -2 14 3 10 6 -3 16 3 24 13 8 10 18 16 24 13 5 -4 7 1 3 10
-3 10 -4 17 -1 17 2 0 109 -38 237 -86z m1772 76 c-3 -5 -2 -10 4 -10 5 0 11
6 13 12 6 17 54 -14 62 -40 3 -10 20 -26 36 -36 25 -14 34 -15 46 -5 12 10 13
9 9 -3 -4 -9 3 -19 17 -26 19 -9 20 -11 5 -11 -14 -1 -15 -4 -5 -14 7 -8 20
-12 30 -9 10 2 18 -1 18 -7 0 -7 -4 -9 -10 -6 -5 3 -10 1 -10 -5 0 -6 11 -8
25 -6 21 4 25 1 21 -12 -7 -23 8 -46 26 -40 8 3 22 0 33 -8 10 -8 14 -14 9
-14 -6 0 -16 6 -23 13 -11 10 -11 8 0 -10 7 -12 17 -19 23 -16 5 4 7 -1 2 -12
-6 -16 -4 -16 11 -4 10 7 15 9 10 4 -8 -10 32 -57 44 -50 4 3 10 1 14 -5 3 -5
1 -10 -5 -10 -6 0 -8 -5 -3 -12 9 -16 11 3 -28 -259 l-32 -215 -234 87 c-129
48 -237 90 -240 92 -23 23 -287 503 -279 506 90 34 394 140 404 140 7 1 10 -3
7 -9z m-2195 -165 c0 -2 -7 -5 -15 -9 -9 -3 -15 0 -15 9 0 9 6 12 15 9 8 -4
15 -7 15 -9z m1860 -214 c71 -124 128 -226 126 -228 -1 -2 -173 61 -380 139
l-378 141 223 79 c123 43 233 82 244 87 11 5 23 9 28 8 4 -1 66 -103 137 -226z
m-953 124 c97 -36 179 -67 180 -69 2 -2 -121 -47 -272 -101 -152 -53 -278 -96
-279 -94 -5 6 178 329 186 329 4 0 87 -29 185 -65z m705 -265 l420 -157 208
-360 207 -359 -98 -629 c-55 -346 -100 -630 -102 -632 -7 -6 -2062 19 -2068
25 -3 4 -45 270 -92 590 l-85 584 240 426 c132 235 244 432 249 437 18 18 664
244 683 238 10 -3 208 -76 438 -163z m-1788 -54 c15 -103 26 -189 24 -191 -10
-7 -353 -124 -356 -121 -2 3 5 13 16 24 17 17 18 22 6 26 -8 3 -14 11 -14 18
0 9 3 9 11 -2 9 -12 10 -11 6 8 -4 15 0 22 10 22 9 0 11 -5 7 -12 -5 -9 -3 -9
9 1 19 15 12 35 -9 27 -23 -9 -16 18 9 33 20 13 21 13 8 -2 -7 -10 -9 -17 -3
-17 16 0 23 30 12 51 -7 12 -7 19 -1 19 5 0 11 6 14 13 2 6 3 4 2 -5 -2 -10 1
-18 6 -18 5 0 9 3 10 8 0 4 2 17 5 30 3 16 0 21 -8 16 -7 -4 -8 -3 -4 5 6 9
11 9 21 1 10 -8 15 -8 21 1 4 8 3 9 -4 5 -7 -4 -12 -1 -12 8 0 9 7 16 15 16
17 0 20 16 5 25 -5 3 -9 14 -9 23 1 16 2 16 6 0 2 -9 10 -19 18 -22 10 -3 12
2 9 20 -3 19 0 24 15 24 15 0 19 6 16 27 -2 22 17 59 27 52 2 -2 16 9 32 24
16 15 24 27 17 27 -6 0 -3 8 7 19 9 10 20 15 23 12 3 -3 18 -91 33 -195z
m2861 164 c-3 -5 0 -10 7 -10 9 0 9 -3 -2 -10 -13 -9 -13 -12 1 -20 9 -5 22
-24 30 -42 7 -18 26 -45 42 -60 17 -16 23 -28 16 -28 -10 -1 -9 -4 3 -14 10
-7 14 -17 10 -21 -4 -5 1 -5 11 -2 13 5 17 2 15 -11 -2 -9 -7 -20 -13 -24 -6
-4 -2 -8 8 -8 9 0 17 -5 17 -11 0 -5 6 -7 13 -3 8 5 7 2 -2 -9 -8 -10 -11 -20
-7 -24 3 -3 6 -1 6 6 0 7 5 9 10 6 8 -5 8 -11 1 -19 -12 -15 4 -36 28 -36 10
0 12 -3 5 -8 -12 -8 -15 -42 -3 -42 4 0 9 6 12 13 2 6 4 -1 4 -17 0 -19 -2
-24 -8 -15 -7 11 -9 11 -9 1 0 -7 9 -16 19 -20 11 -4 20 -11 20 -17 1 -5 5
-10 10 -10 5 0 13 -4 18 -9 4 -5 3 -6 -3 -3 -17 10 -39 -19 -23 -29 8 -5 9 -3
4 6 -6 9 -4 11 4 6 7 -5 10 -14 7 -22 -3 -8 -1 -14 4 -14 5 0 10 6 13 13 2 6
2 -1 -1 -17 -3 -22 -1 -27 9 -21 10 6 11 5 3 -4 -8 -9 -54 4 -189 54 -98 36
-181 68 -185 70 -4 2 8 93 25 202 24 150 35 197 45 195 11 -3 11 0 1 11 -9 12
-9 16 1 20 21 9 30 8 23 -3z m-2477 -588 c-172 -307 -214 -376 -219 -357 -11
37 -83 555 -78 559 7 6 504 182 507 180 2 -1 -92 -174 -210 -382z m2319 134
c3 -2 -67 -449 -70 -452 -2 -2 -213 361 -325 557 l-32 57 212 -80 c117 -45
214 -81 215 -82z m-2622 -260 c26 -169 45 -315 43 -325 -5 -30 -401 -722 -409
-714 -14 16 -107 223 -97 217 6 -4 6 2 -1 15 -7 11 -17 21 -24 21 -7 0 -6 4 3
10 11 7 11 10 2 10 -7 0 -10 5 -7 10 3 6 -1 13 -9 16 -12 5 -13 10 -5 25 9 18
5 23 -15 20 -5 -1 -2 9 8 23 11 18 12 24 3 20 -8 -3 -14 2 -14 11 0 9 6 14 14
11 10 -4 10 -1 1 14 -7 10 -15 17 -18 15 -4 -2 -6 5 -5 16 1 11 7 24 14 28 9
6 8 10 -5 15 -16 6 -16 8 -4 16 12 8 10 10 -7 10 -16 0 -23 6 -23 20 0 11 4
20 9 20 5 0 11 10 14 23 2 12 8 31 12 41 6 14 5 17 -3 12 -8 -5 -10 2 -6 24 4
19 2 30 -5 30 -17 0 -13 28 5 38 14 8 14 11 2 23 -13 12 -12 16 6 31 12 10 17
18 11 17 -24 -3 -27 2 -9 16 11 8 14 15 7 15 -7 0 -13 5 -13 11 0 5 6 7 13 3
9 -6 9 -4 2 7 -11 14 -10 50 4 121 0 4 8 14 17 22 14 15 14 16 -1 16 -13 0
-14 4 -5 20 6 12 10 31 8 43 -2 17 1 21 16 19 18 -3 18 -2 5 14 -8 11 -9 15
-1 10 11 -7 18 12 13 38 -1 5 6 5 16 2 14 -6 16 -5 6 5 -15 15 -18 43 -4 35 5
-4 11 -1 13 6 3 9 367 148 375 143 1 -1 23 -140 48 -309z m2885 161 c201 -76
199 -75 192 -100 -3 -14 -1 -18 6 -13 8 5 12 -4 12 -29 0 -22 4 -34 10 -30 6
3 10 1 10 -4 0 -6 -8 -11 -17 -11 -15 0 -15 -2 -4 -9 8 -5 15 -18 16 -28 4
-31 10 -48 20 -55 6 -5 5 -8 -2 -8 -7 0 -13 -5 -13 -11 0 -5 4 -8 8 -5 4 2 8
-4 8 -14 0 -14 -3 -16 -13 -8 -14 12 -16 8 -7 -16 3 -9 10 -14 14 -11 5 3 7
-6 5 -20 -1 -14 1 -25 5 -25 5 0 6 -10 2 -22 -3 -14 -1 -19 6 -14 8 5 10 2 6
-8 -3 -9 -11 -14 -16 -13 -6 1 -13 -5 -15 -13 -4 -13 -3 -13 6 0 8 12 12 9 21
-14 6 -16 9 -34 6 -40 -2 -6 -5 -3 -5 6 -1 9 -5 19 -10 22 -5 3 -7 -8 -6 -24
1 -17 -2 -30 -7 -30 -5 0 -6 -5 -3 -10 4 -6 11 -8 16 -5 5 4 9 2 9 -4 0 -5 -4
-13 -10 -16 -5 -3 -10 -12 -9 -18 0 -9 2 -9 6 1 8 21 18 13 20 -18 1 -17 -2
-30 -8 -30 -6 0 -7 -9 -4 -21 5 -15 4 -19 -4 -15 -15 10 -14 -7 2 -23 10 -11
10 -13 0 -7 -16 9 -17 -6 -1 -22 7 -7 8 -12 4 -12 -5 0 -3 -6 3 -13 8 -10 7
-14 -4 -14 -8 0 -15 7 -15 14 0 8 -4 12 -9 9 -5 -4 -5 -18 2 -35 6 -17 16 -27
21 -23 12 6 -14 -29 -28 -39 -4 -4 -3 -10 4 -14 8 -5 7 -12 -6 -26 -17 -18 -8
-27 12 -11 5 4 1 -1 -9 -10 -10 -10 -17 -25 -16 -35 2 -20 -1 -30 -48 -132
-19 -40 -36 -72 -38 -70 -16 16 -415 716 -415 728 0 9 16 125 37 257 l38 242
35 -13 c19 -7 100 -38 180 -68z m-101 -855 l202 -353 -63 -132 c-34 -73 -87
-181 -118 -242 l-55 -110 -177 -3 c-107 -1 -178 1 -178 7 0 5 41 269 90 587
50 318 90 585 90 593 0 8 2 12 4 10 2 -2 94 -163 205 -357z m-2644 -257 c42
-286 78 -530 80 -542 5 -23 4 -23 -88 -23 -52 0 -135 3 -184 6 l-91 7 -96 199
-96 199 192 342 c105 188 193 347 197 352 7 12 -3 72 86 -540z m3932 313 c-2
-13 -4 -5 -4 17 -1 22 1 32 4 23 2 -10 2 -28 0 -40z m-4342 -726 c-3 -3 -11 0
-18 7 -9 10 -8 11 6 5 10 -3 15 -9 12 -12z m430 -201 l71 -1 22 -160 c13 -89
20 -165 17 -170 -3 -5 -1 -11 5 -15 5 -3 10 -11 10 -18 0 -6 -7 -2 -15 9 -8
10 -15 15 -15 11 0 -4 -6 -2 -14 5 -8 7 -11 18 -8 23 3 6 1 7 -3 2 -5 -4 -16
0 -26 9 -9 8 -26 16 -37 17 -12 1 -18 6 -15 15 5 11 7 11 14 0 5 -8 9 -9 9 -2
0 6 -7 17 -15 24 -12 10 -15 10 -15 -4 0 -9 -4 -16 -10 -16 -5 0 -7 6 -4 13 3
8 -2 20 -10 27 -9 7 -13 16 -10 21 3 5 -2 9 -10 9 -8 0 -22 10 -30 22 -9 12
-16 17 -16 10 0 -9 -7 -8 -25 4 -14 9 -22 20 -19 25 3 5 0 9 -6 9 -7 0 -10 6
-7 14 4 10 -1 13 -19 11 -23 -2 -24 -1 -8 16 17 19 2 22 -24 5 -11 -7 -12 -4
-3 13 7 12 8 21 4 20 -4 -1 -15 -1 -23 0 -12 1 -13 3 -1 10 11 7 9 10 -7 15
-11 4 -23 13 -26 21 -4 12 11 14 97 11 56 -2 134 -4 172 -5z m1542 -10 c342
-3 624 -9 628 -12 6 -6 -49 -363 -61 -393 -5 -13 -13 -16 -31 -11 -16 4 -22 2
-18 -5 3 -5 1 -10 -5 -10 -6 0 -8 -5 -4 -11 4 -7 -1 -9 -12 -7 -11 2 -18 10
-16 17 1 7 -2 10 -8 6 -6 -3 -8 -11 -5 -16 4 -5 -4 -9 -15 -9 -15 0 -20 -5
-17 -14 4 -10 -1 -13 -19 -11 -19 2 -24 -1 -19 -13 4 -12 2 -12 -8 -4 -16 14
-28 6 -21 -13 7 -17 -32 -40 -41 -25 -4 6 -3 10 2 9 19 -3 34 2 29 10 -7 11
-24 9 -51 -6 -11 -6 -24 -11 -30 -11 -5 0 -11 -6 -13 -14 -2 -9 0 -8 7 2 6 8
11 10 11 4 0 -6 -3 -13 -6 -17 -8 -8 -35 3 -29 12 2 4 -2 8 -10 8 -8 0 -12 -4
-9 -9 3 -4 0 -8 -5 -8 -6 0 -11 -8 -11 -17 0 -13 -3 -14 -11 -6 -8 8 -20 8
-36 2 -14 -5 -30 -6 -36 -2 -7 4 -5 -2 3 -12 14 -17 14 -18 -6 -7 -19 10 -24
8 -38 -11 -9 -12 -14 -15 -10 -7 6 11 3 11 -12 -2 -16 -14 -27 -16 -52 -8 -20
5 -30 5 -27 -1 4 -5 -1 -9 -10 -9 -10 0 -14 -5 -10 -12 4 -7 -1 -4 -10 7 -12
14 -19 16 -22 8 -3 -7 -9 -13 -14 -13 -6 0 -7 5 -4 10 3 6 1 10 -4 10 -6 0
-11 -7 -11 -15 0 -9 -6 -12 -16 -8 -9 3 -20 0 -25 -8 -7 -11 -9 -11 -9 3 0 12
-5 15 -16 11 -11 -4 -12 -8 -4 -13 8 -5 7 -9 -3 -13 -9 -3 -18 0 -21 8 -3 8
-14 13 -26 12 -11 -1 -18 -7 -16 -13 3 -7 -2 -15 -10 -18 -9 -3 -12 -1 -9 4 3
6 0 10 -9 10 -8 0 -22 3 -32 7 -12 4 -15 3 -10 -5 9 -14 5 -15 -28 -3 -17 7
-26 7 -29 -2 -3 -9 -9 -9 -23 -1 -15 9 -22 8 -32 -2 -14 -16 -36 -19 -28 -5 4
5 -2 8 -11 6 -10 -1 -17 -8 -15 -15 1 -6 -2 -8 -8 -5 -6 4 -9 13 -6 21 3 7 0
16 -7 20 -7 4 -9 4 -5 -1 9 -9 -9 -35 -23 -35 -5 0 -8 5 -6 11 1 6 -8 15 -20
20 -15 5 -23 5 -23 -2 0 -6 -7 -6 -19 1 -14 7 -22 7 -26 0 -5 -8 -11 -8 -20 0
-7 6 -25 13 -39 16 -20 3 -26 0 -27 -13 0 -16 -1 -16 -8 1 -5 14 -10 16 -15 8
-4 -7 -14 -12 -22 -12 -8 0 -13 4 -10 9 3 4 -4 17 -15 27 -15 13 -20 14 -17 4
3 -13 -7 -15 -43 -11 -5 0 -7 6 -3 13 4 6 3 8 -4 4 -6 -3 -14 -1 -17 4 -5 7
-12 5 -22 -7 -8 -10 -12 -13 -10 -8 3 6 -1 16 -9 23 -12 11 -14 10 -15 -5 0
-16 -1 -16 -9 2 -6 13 -9 15 -9 5 -1 -12 -3 -12 -10 -2 -5 8 -18 11 -37 7 -23
-4 -25 -3 -9 4 11 5 16 11 10 12 -5 1 -14 3 -20 4 -5 2 -14 3 -19 4 -5 0 -2 8
5 18 13 14 12 15 -6 7 -18 -9 -36 -10 -72 -5 -7 0 -13 6 -13 12 0 5 5 7 12 3
7 -4 8 -3 4 4 -8 13 -36 5 -36 -12 0 -6 -4 -5 -9 4 -6 8 -7 18 -5 22 3 4 -3 5
-12 1 -10 -4 -15 -2 -11 3 3 5 -6 11 -20 12 -35 3 -45 11 -38 31 5 12 3 13 -6
4 -9 -9 -16 -7 -31 10 l-19 22 11 -22 c8 -18 8 -23 -3 -23 -8 0 -17 9 -20 21
-3 12 -10 18 -16 14 -7 -4 -8 0 -4 11 4 12 3 15 -5 10 -7 -4 -12 -2 -12 5 0 8
-5 8 -17 -2 -10 -7 -15 -9 -11 -5 4 5 3 15 -3 23 -6 7 -8 13 -3 13 5 0 3 4 -3
8 -7 5 -25 88 -41 195 l-28 187 400 -1 c221 0 681 -4 1023 -8z m1007 -27 c3
-8 2 -12 -4 -9 -6 3 -10 0 -11 -7 0 -9 -2 -10 -5 -1 -10 23 -31 3 -27 -25 4
-21 2 -24 -6 -12 -10 14 -16 7 -12 -14 1 -5 -4 -4 -12 2 -16 14 -28 6 -20 -14
3 -8 10 -11 16 -7 6 3 7 1 3 -6 -4 -6 -11 -9 -16 -6 -5 3 -12 -4 -15 -16 -7
-20 -7 -20 -27 -2 -19 17 -20 17 -17 -2 3 -12 -1 -19 -8 -18 -7 2 -10 -4 -7
-12 4 -8 11 -12 17 -8 6 3 7 1 3 -6 -4 -6 -11 -9 -16 -6 -4 3 -10 2 -13 -2 -2
-5 -2 -2 -1 5 6 22 -6 12 -16 -14 -9 -22 -13 -24 -25 -14 -12 10 -16 8 -24
-13 -5 -13 -17 -27 -26 -31 -9 -3 -14 -10 -10 -15 3 -5 0 -13 -6 -17 -8 -4 -9
-3 -5 4 4 7 3 12 -2 12 -6 0 -13 -7 -16 -16 -4 -10 -12 -14 -22 -10 -15 6 -15
4 -3 -11 12 -15 12 -16 -3 -11 -10 4 -19 1 -22 -9 -4 -9 -9 -14 -12 -11 -4 5
27 233 42 311 l6 27 158 0 c133 0 159 -2 164 -16z m-2624 -180 c0 -8 -4 -12
-10 -9 -5 3 -10 13 -10 21 0 8 5 12 10 9 6 -3 10 -13 10 -21z m35 -24 c3 -5 1
-10 -4 -10 -6 0 -11 5 -11 10 0 6 2 10 4 10 3 0 8 -4 11 -10z m2362 -32 c-3
-8 -6 -5 -6 6 -1 11 2 17 5 13 3 -3 4 -12 1 -19z m-2287 -38 c0 -5 -5 -10 -11
-10 -5 0 -7 5 -4 10 3 6 8 10 11 10 2 0 4 -4 4 -10z m470 -260 c0 -5 -4 -10
-10 -10 -5 0 -10 5 -10 10 0 6 5 10 10 10 6 0 10 -4 10 -10z m247 -86 c-3 -3
-12 -4 -19 -1 -8 3 -5 6 6 6 11 1 17 -2 13 -5z m124 -17 c-10 -9 -11 -8 -5 6
3 10 9 15 12 12 3 -3 0 -11 -7 -18z m2049 -291 c0 -2 -8 -10 -17 -17 -16 -13
-17 -12 -4 4 13 16 21 21 21 13z m-50 -40 c0 -2 -8 -10 -17 -17 -16 -13 -17
-12 -4 4 13 16 21 21 21 13z m-45 -36 c-3 -5 -20 -19 -38 -30 -32 -22 -32 -22
3 9 37 32 45 37 35 21z"/>
<path d="M1486 4041 c-3 -5 1 -11 9 -14 9 -4 12 -1 8 9 -6 16 -10 17 -17 5z"/>
<path d="M1161 2921 c-8 -5 -9 -11 -3 -15 5 -3 12 1 16 9 6 17 6 18 -13 6z"/>
<path d="M3748 5703 c7 -3 16 -2 19 1 4 3 -2 6 -13 5 -11 0 -14 -3 -6 -6z"/>
<path d="M4090 5550 c8 -5 20 -10 25 -10 6 0 3 5 -5 10 -8 5 -19 10 -25 10 -5
0 -3 -5 5 -10z"/>
<path d="M1635 5424 c-217 -122 -395 -257 -591 -446 -77 -76 -143 -135 -146
-133 -2 3 -15 -7 -29 -23 l-24 -27 28 24 c15 14 27 20 27 15 0 -13 -55 -66
-62 -59 -2 3 -13 -5 -24 -17 l-19 -23 23 19 c27 24 30 6 2 -19 -11 -10 -20
-14 -20 -10 0 28 -163 -198 -224 -310 -33 -60 -24 -48 77 107 43 66 80 118 83
115 3 -2 -24 -49 -59 -103 -76 -119 -79 -124 -74 -124 2 0 36 48 75 108 228
346 545 646 912 863 162 97 166 99 155 99 -6 0 -55 -25 -110 -56z m-861 -748
c-37 -46 -45 -37 -9 9 15 20 29 34 32 31 3 -2 -8 -20 -23 -40z"/>
<path d="M4340 5476 c0 -3 14 -12 30 -21 17 -9 30 -13 30 -11 0 3 -13 12 -30
21 -16 9 -30 13 -30 11z"/>
<path d="M520 4320 c-11 -22 -18 -40 -15 -40 2 0 14 18 25 40 11 22 18 40 15
40 -2 0 -14 -18 -25 -40z"/>
<path d="M436 4155 c-9 -26 -7 -32 5 -12 6 10 9 21 6 23 -2 3 -7 -2 -11 -11z"/>
<path d="M5333 1436 c-100 -148 -188 -259 -312 -391 -74 -79 -68 -75 26 21 65
67 151 164 190 215 77 103 187 268 182 274 -2 1 -41 -52 -86 -119z"/>
<path d="M3388 213 c7 -3 16 -2 19 1 4 3 -2 6 -13 5 -11 0 -14 -3 -6 -6z"/>
</g>
</svg>
